<svg id="Lag_1" data-name="Lag 1" xmlns="http://www.w3.org/2000/svg" viewBox="0 0 94.5 157.76"><defs><style>.cls-1{fill:#161616;}</style></defs><path class="cls-1" d="M6.06,157.76a67.19,67.19,0,0,0,11.45-5.46,1.83,1.83,0,0,1,.28-.14v0h0c2.67-1.7,5.22-3.23,7.72-4.91,1.69-1.15,3.24-2.49,4.87-3.72,1.88-1.42,3.84-2.74,5.64-4.24,3.21-2.66,6.36-5.45,9.5-8.24l.34-.27a22.15,22.15,0,0,1,3.74-2.83c.29-.23.58-.46.86-.7,2.57-2.14,4.64-4.76,7.19-6.92a2.09,2.09,0,0,1,.21-.23c2.88-2.73,5.71-5.53,8.58-8.28,1.25-1.2,2.6-2.31,3.84-3.52,2.37-2.31,4.71-4.65,7-7,1.16-1.15,2.28-2.31,3.38-3.51,2.11-2.31,4.17-4.64,6.28-7a43.7,43.7,0,0,0,6.65-9.15,4.82,4.82,0,0,0,0-5.58A43.76,43.76,0,0,0,87,66.93c-2.11-2.32-4.17-4.65-6.28-7-1.1-1.2-2.22-2.36-3.38-3.51-2.34-2.35-4.68-4.7-7-7-1.24-1.21-2.59-2.31-3.84-3.52-2.87-2.75-5.7-5.54-8.58-8.27a2.09,2.09,0,0,1-.21-.23c-2.55-2.16-4.62-4.78-7.19-6.93l-.86-.7A21.64,21.64,0,0,1,45.83,27c-.1-.07-.21-.15-.34-.26-3.14-2.79-6.29-5.59-9.5-8.25-1.8-1.5-3.76-2.81-5.64-4.23-1.63-1.23-3.18-2.57-4.87-3.72C23,8.84,20.43,7.31,17.76,5.61h0a1.91,1.91,0,0,1-.28-.15A67.91,67.91,0,0,0,6.06,0,2.25,2.25,0,0,1,5.7.06C2.59,0-.31.36,0,3.43c0,.14,0,.28,0,.42.15.43.32.86.51,1.28a91.5,91.5,0,0,0,6.32,8.06c.72.57,1.42,1.16,2.12,1.75l.59.42c.17.1-.24-.18,0,0,2,1.47,4,3,5.92,4.61,1.39,1.15,2.69,2.41,4,3.6,1.65,1.45,3.38,2.81,5,4.31,2,1.88,4,3.85,6,5.76L35,37.89c2.85,2.37,5.35,5.12,8.06,7.66a15.75,15.75,0,0,1,2,2.18c.41.36.82.72,1.23,1.06a5.09,5.09,0,0,1,.7.69c2.05,2,4.07,4.07,6.13,6.08,2.67,2.62,5.41,5.15,8,7.8,3.54,3.56,7,7.17,10.5,10.78q2.23,2.35,4.44,4.74-2.2,2.39-4.44,4.73c-3.48,3.61-7,7.23-10.5,10.78-2.63,2.66-5.37,5.18-8,7.8-2.06,2-4.08,4.06-6.13,6.08a5.14,5.14,0,0,1-.7.7q-.62.51-1.23,1a15.81,15.81,0,0,1-2,2.19c-2.71,2.53-5.21,5.28-8.06,7.66l-4.51,4.27c-2,1.92-4,3.88-6,5.76-1.59,1.51-3.32,2.87-5,4.32-1.36,1.18-2.66,2.44-4,3.6-1.93,1.58-3.91,3.14-5.92,4.61l-.55.38H9c-.7.59-1.4,1.18-2.12,1.76a90,90,0,0,0-6.32,8.06c-.19.42-.36.84-.51,1.28,0,.14,0,.27,0,.41-.34,3.07,2.56,3.44,5.67,3.38A1.13,1.13,0,0,1,6.06,157.76Z"/></svg>
