<svg id="Layer_1" data-name="Layer 1" xmlns="http://www.w3.org/2000/svg" viewBox="0 0 32 18"><defs><style>.cls-1{fill:#040405;}</style></defs><path id="Path_266" data-name="Path 266" class="cls-1" d="M23.77,7.08c-.32-.33-.63-.68-1-1a.74.74,0,0,0-.5-.2,9,9,0,0,0-1.15.23,2.36,2.36,0,0,1-.46.1h-4l-.22,0-.32,0a12.83,12.83,0,0,1-2,0c-.53,0-1.06.09-1.59.08h0a.58.58,0,0,1-.19,0c-1.46,0-2.93,0-4.39.17s-3.16.38-4.74.57H3c-.58,0-1.16.13-1.74.17a13.41,13.41,0,0,0-1.54.27l0,0,0,0h0s0,0,0,0l0,.05c0,.23,0,.46,0,.69a2.3,2.3,0,0,1-.06.28v.08a.3.3,0,0,1,0,.1A.85.85,0,0,0,0,9.36a2,2,0,0,0,.81.14c.7.05,1.4,0,2.11,0h0l9.85-.12h0c.34,0,.7,0,1,0,.94,0,1.88-.11,2.82-.1h.32l1.83-.09L23,9a1.31,1.31,0,0,0,1.17-.84C24.35,7.74,24.09,7.41,23.77,7.08Z"/><path id="Path_267" data-name="Path 267" class="cls-1" d="M32,14c-.2-.49-.4-1-.61-1.45a.08.08,0,0,0,0-.05A.89.89,0,0,0,30.25,12c-.45.1-.9.16-1.36.22l-2,.25c-1.38.15-2.76.31-4.14.44-1,.1-2.07.15-3.1.24-.8.06-1.59.14-2.39.21l-.27,0h-.45a5.66,5.66,0,0,1-.81.12c-1,.06-2,.2-3.07.2L11,13.8c-.77.06-1.54.12-2.31.16-.61,0-1.22,0-1.82,0s-1,.05-1.5.05c-.7,0-1.4,0-2.08-.06l-.19,0H2.31a26.46,26.46,0,0,0-2.78.6l-.33.18-.08.09c-.61.6-.61.73.06,1.27a.27.27,0,0,1,.07.08,19.14,19.14,0,0,0,3.41.86l.08,0h0c.87.11,1.68.24,2.52.33.56.05,1.13,0,1.7.07s1.3.1,2,.1c1.15,0,2.32,0,3.49-.08h.12a5.67,5.67,0,0,1,1.3.06h.3c.93,0,1.84-.19,2.76-.2H17c1.1-.07,2.2-.17,3.3-.24.48,0,1,0,1.44-.07l2.75-.25c.45,0,.9-.09,1.34-.15l2.57-.37a12.68,12.68,0,0,0,3-.77C32.24,15.12,32.35,14.84,32,14Z"/><path id="Path_268" data-name="Path 268" class="cls-1" d="M28.38,2.15c-.29-.4-.57-.81-.89-1.19A1,1,0,0,0,27,.63C26.06.48,25.14.37,24.22.26S22.5,0,21.64,0c-1.71-.07-3.42-.07-5.13-.1l-.34,0a7.06,7.06,0,0,1-1.3,0A24,24,0,0,0,12.19,0h-.11L9.89.05c-1.12,0-2.23,0-3.34.12C4.86.29,3.18.46,1.5.6A1.07,1.07,0,0,1,1,.55C.55.35.2.51.15,1L.06,2a1,1,0,0,0,.21.48,1.45,1.45,0,0,0,.84.34,7.64,7.64,0,0,0,1.51.07,1,1,0,0,1,.3,0h0L12.44,3h0c.68-.06,1.36-.09,2-.16a4.93,4.93,0,0,1,1.58,0,1.68,1.68,0,0,1,.63.07,6.51,6.51,0,0,1,.76.07c1.32,0,2.64.08,3.95.14.82,0,1.63.09,2.44.19a15.46,15.46,0,0,0,4,0C28.65,3.29,28.85,2.81,28.38,2.15Z"/></svg>