<svg id="Lag_1" data-name="Lag 1" xmlns="http://www.w3.org/2000/svg" viewBox="0 0 189.87 273.38"><defs><style>.cls-1{fill:#fcdc01;}.cls-2{fill:#161616;}.cls-3{fill:#eac802;}</style></defs><polygon class="cls-1" points="65.23 23.01 80.56 3.65 84.09 6.13 103.59 22.01 152.13 54.02 183.7 109.14 185.44 123 185.64 174.07 180.36 187.43 144.76 238.93 87.53 268.38 31.01 264.96 4.06 243.92 4 242.22 45.84 218.08 85.84 190.29 91.76 181.31 107.97 134.07 117.11 85.42 119.17 70.38 112.83 51.71 75.7 29.52 65.31 27.96 65.23 23.01"/><path class="cls-2" d="M87.53,270.38h-.12L30.88,267a2,2,0,0,1-1.11-.42L2.83,245.49a2,2,0,0,1-.76-1.5L2,242.3a2,2,0,0,1,1-1.81l41.77-24.1,39.61-27.52L90,180.42,106,133.56l9.09-48.46,2-14.53-6-17.52L75,31.44l-10-1.5A2,2,0,0,1,63.31,28l-.08-5a2,2,0,0,1,.43-1.27L79,2.41A2,2,0,0,1,81.71,2L85.24,4.5l.11.08L104.78,20.4l48.45,32a2.19,2.19,0,0,1,.64.68l31.56,55.11a2,2,0,0,1,.25.75l1.75,13.86a1.93,1.93,0,0,1,0,.24l.2,51.07a2,2,0,0,1-.14.74l-5.28,13.37a3,3,0,0,1-.21.4l-35.6,51.5a2,2,0,0,1-.73.64L88.45,270.16A2,2,0,0,1,87.53,270.38ZM36,262l51.06,4.34,56.31-29,35.18-50.9,5-12.79-.19-50.56-1.69-13.35L150.63,55.43l-48.2-31.79-.1-.08L87.05,9.34,85.11,8l-2,.79L71.41,25.31l0,2.54L79.61,30a2.06,2.06,0,0,1,.73.26L113.85,50a2,2,0,0,1,.87,1.08l6.35,18.67a1.87,1.87,0,0,1,.08.91l-2.06,15s0,.07,0,.1l-9.13,48.65-.07.28L93.65,182a1.57,1.57,0,0,1-.22.45l-5.92,9a2.09,2.09,0,0,1-.53.54L47,219.72a.42.42,0,0,1-.14.09l-25.5,16.32c-9.15,3.91-8.89,9-2.09,14Z"/><polygon class="cls-3" points="23.51 253.11 36.04 262.01 87.1 266.35 143.41 237.38 178.59 186.48 183.64 173.69 183.45 123.13 181.76 109.78 150.63 55.43 102.43 23.64 87.05 9.34 85.12 7.98 83.13 8.77 80.04 13.13 99.91 27.71 141.66 61.92 161.6 112.22 162.81 121.42 156.41 170.8 150.5 181.21 130.09 214.86 82.93 243.91 37.84 248.39 23.51 253.11"/><polygon class="cls-2" points="149.48 204.49 146.72 202.67 164.14 176.23 168.03 165.43 168.71 131.3 171.7 131.36 170.42 165.87 166.22 177.43 149.48 204.49"/><polygon class="cls-2" points="142.51 214.86 139.9 213.09 144.53 206.24 146.52 207.58 142.51 214.86"/></svg>
