<svg id="Lag_1" data-name="Lag 1" xmlns="http://www.w3.org/2000/svg" viewBox="0 0 268.83 166.76"><defs><style>.cls-1{fill:#fcdc01;}.cls-2{fill:#161616;}.cls-3{fill:#eac802;}</style></defs><polygon class="cls-1" points="243.96 164.83 266.82 155.49 265.42 151.41 255.59 128.26 238.35 72.73 194.19 27.08 181.37 21.55 132.37 7.15 118.07 8.5 58.7 28.37 14.48 75.14 2.04 130.38 14.76 162.12 16.37 162.65 51.2 129.18 89.02 98.49 99.29 95.31 149.18 92.88 198.45 97.64 213.47 99.84 229.64 111.13 240.62 152.96 239.23 163.38 243.96 164.83"/><path class="cls-2" d="M12.56,74.59l0,.11L.05,129.94a2,2,0,0,0,.09,1.18l12.77,31.75A2,2,0,0,0,14.13,164l1.61.54a2,2,0,0,0,2-.45l34.77-33.42L90,100.29l9.68-3.05,49.46-2.33,49.08,4.76,14.51,2.12,15.16,10.63,10.71,40.68-1.34,10a2,2,0,0,0,1.39,2.17l4.79,1.47a2,2,0,0,0,1.33-.06l22.83-9.36a2,2,0,0,0,1.15-2.49l-1.42-4.09-.05-.13-9.79-23.06L240.22,72.13a2.11,2.11,0,0,0-.48-.8L195.59,25.68a2.05,2.05,0,0,0-.65-.45l-12.83-5.54a1.55,1.55,0,0,0-.23-.06l-49-14.41a2.08,2.08,0,0,0-.75-.07L117.82,6.5a2.33,2.33,0,0,0-.44.1L58,26.46a2.09,2.09,0,0,0-.82.52L13,73.76A2.08,2.08,0,0,0,12.56,74.59ZM6.28,126.41l10-50.25,43.53-46,58.67-19.62,13.68-1.25L180.7,23.52l12.35,5.34,43.53,44.92,17.13,55.15,0,.11,9.4,18.64.75,2.23-1.31,1.7-19.13,6.65-2.44-.71.22-8.47a2,2,0,0,0-.05-.78l-9.63-37.68a2,2,0,0,0-.8-1.13L214.6,98.19a1.85,1.85,0,0,0-.85-.33l-15-2.19-.09,0-49.27-4.77h-.29l-50,2.44a1.69,1.69,0,0,0-.5.08L88.37,96.57a1.85,1.85,0,0,0-.66.36L50,127.61a.69.69,0,0,0-.13.11L27.05,147.67c-6.3,7.7-11.12,6-14-1.88Z"/><polygon class="cls-3" points="11.34 140.88 6.28 126.37 16.32 76.12 59.81 30.09 118.49 10.47 132.18 9.17 180.69 23.42 193.04 28.76 236.58 73.78 253.71 128.93 263.16 147.68 263.93 149.91 262.62 151.6 257.57 153.36 249.1 130.21 227.85 80.59 185.09 47.45 176.59 43.72 127.38 36.13 115.73 38.91 77.73 49.16 36.71 86.37 19.86 128.43 11.34 140.88"/><polygon class="cls-2" points="93.09 33.41 94.07 36.57 124.31 27.2 135.77 26.47 168.74 35.31 169.51 32.42 136.01 24.05 123.74 24.86 93.09 33.41"/><polygon class="cls-2" points="81.19 37.23 82.16 40.22 90.03 37.68 89.3 35.4 81.19 37.23"/></svg>
