<svg id="Lag_1" data-name="Lag 1" xmlns="http://www.w3.org/2000/svg" viewBox="0 0 281.3 196.32"><path d="M84.2,3.14c-1.09-1.69-.15-.71-1.34-2.26C82.39.23,79.29,0,78.65,0a25.82,25.82,0,0,0-4,1.17,5.92,5.92,0,0,1-1.59.52H59.26a3.87,3.87,0,0,1-.76.11,4.72,4.72,0,0,1-1.13-.13c-2.21.49-4.49.16-6.73.12-1.83,0-3.66.46-5.49.4h-.1a1.25,1.25,0,0,1-.67.16c-5.05.19-10.12.26-15.15.87-5.47.71-10.9,1.92-16.37,2.9a2.89,2.89,0,0,1-.72,0v0c-2,.1-4,.68-6,.87A37.46,37.46,0,0,0,.84,8.33l-.12.15L.6,8.65v0a1.85,1.85,0,0,0-.06.2,2,2,0,0,0-.08.26C.39,10.29.33,11.45.26,12.61c-.05.49-.13,1-.21,1.45v.41A2.76,2.76,0,0,1,0,15a4.43,4.43,0,0,0,1.49,2.66,5.39,5.39,0,0,0,2.79.7,59.28,59.28,0,0,0,7.3.09h0v-.06l34-.6v.06a29.6,29.6,0,0,1,3.61.25c3.24-.24,6.48-.57,9.73-.5l.74-.06a1.18,1.18,0,0,1,.35-.05c2.11-.09,4.21-.27,6.32-.44,4.9-.36,10,.49,14.89,0,1.79-.1,2.38-3.16,3-5.64C84.92,9.15,85.29,4.84,84.2,3.14Z"/><path d="M162.57,44.87c1.48,1.5,2.94,3,4.56,4.42a4,4,0,0,0,2.41,1,52.53,52.53,0,0,0,5.63-.75,12.32,12.32,0,0,1,2.27-.34L197,50a9.39,9.39,0,0,1,1.07,0,10.18,10.18,0,0,1,1.59.17,69,69,0,0,1,9.53.3c2.59.14,5.19-.17,7.78,0h.14a2.58,2.58,0,0,1,1-.09c7.15.13,14.32.37,21.45.16,7.77-.28,15.49-1,23.26-1.48a8.7,8.7,0,0,1,1,0v0c2.82,0,5.69-.34,8.51-.37,2.59,0,5-.59,7.55-.84l.18-.12.17-.14h0l.1-.17a2.25,2.25,0,0,0,.12-.21c.13-1,.25-2,.38-2.93.1-.41.22-.81.36-1.21v-.35a1.43,1.43,0,0,1,.09-.42,3.87,3.87,0,0,0-2-2.33,12,12,0,0,0-3.92-.76c-3.43-.37-6.87-.39-10.32-.51H265v0l-48.08-1.5v0c-1.67-.09-3.4-.21-5.09-.43-4.6,0-9.2.1-13.79-.15H197a2.5,2.5,0,0,1-.49,0c-3,0-6,0-9,0-6.94,0-13.89,0-20.85.09A6.36,6.36,0,0,0,160.83,40C159.84,41.93,161.08,43.38,162.57,44.87Z"/><path d="M248.18,141.14c2.12-.95,4.29-1.86,6.31-3a3.45,3.45,0,0,0,1.7-1.86,36.6,36.6,0,0,0,.37-5,8.62,8.62,0,0,1,.1-2l5.41-16.67a5.49,5.49,0,0,1,.19-.93,6.83,6.83,0,0,1,.57-1.33c.38-2.78,1.59-5.44,2.51-8.13.75-2.2,1-4.51,1.74-6.7a.37.37,0,0,1,.05-.11,1.81,1.81,0,0,1,.1-.85c1.78-6.12,3.69-12.23,5-18.42,1.43-6.74,2.34-13.54,3.49-20.33a5.44,5.44,0,0,1,.29-.86h0c.68-2.41.88-5,1.47-7.4a54.28,54.28,0,0,0,.71-6.68,1.62,1.62,0,0,0-.1-.18,1.09,1.09,0,0,0-.13-.17v0l-.18-.12a1.88,1.88,0,0,0-.23-.16l-3.4-1q-.7-.26-1.38-.57l-.4-.09a2.35,2.35,0,0,1-.49-.17,5,5,0,0,0-3.24,1.23,8.65,8.65,0,0,0-1.8,3.2c-1.22,2.87-2,5.83-2.93,8.77a.05.05,0,0,0,0,0l.06,0-12.67,41h-.06c-.48,1.41-1,2.87-1.66,4.28-1,4-2,7.93-3.3,11.83-.07.3-.14.61-.23.91a1.51,1.51,0,0,1-.09.42c-.72,2.56-1.37,5.13-2,7.71-1.54,6-3.13,12-4.61,18a5.15,5.15,0,0,0,2.67,5.77C244.05,142.83,246.06,142.09,248.18,141.14Z"/><path d="M248.45,135.37c-1-2.25-2.07-4.5-3.2-6.73l-.08-.21a4.89,4.89,0,0,0-6-2.44c-2.36.42-4.76.72-7.15,1-3.45.41-6.9.79-10.37,1.14-7.27.71-14.55,1.43-21.83,2-5.44.46-10.87.71-16.31,1.11-4.19.29-8.36.66-12.55,1a10.91,10.91,0,0,1-1.43.11c-.78,0-1.58,0-2.37,0a26.34,26.34,0,0,1-4.25.55c-5.4.28-10.77.95-16.18,1l-9.06.52c-4.05.23-8.09.55-12.15.73-3.19.19-6.39.11-9.6.19-2.63.06-5.27.23-7.91.23-3.64,0-7.32-.11-10.94-.31l-1-.07h0c-1.34,0-2.68,0-4,0-5,.5-9.75,1.79-14.62,2.78q-.9.39-1.77.84a3.09,3.09,0,0,1-.4.41c-3.23,2.76-3.22,3.4.33,5.88a3.06,3.06,0,0,1,.36.36,109.41,109.41,0,0,0,17.93,4,3.4,3.4,0,0,1,.46.09v0h0c4.58.51,8.87,1.1,13.25,1.5,3,.24,6,.19,8.94.32,3.43.13,6.86.45,10.28.45,6.08,0,12.23-.18,18.36-.35.24,0,.44,0,.63,0a35.45,35.45,0,0,1,6.84.28h1.61c4.89,0,9.66-.9,14.53-.94a2.73,2.73,0,0,1,.45-.06c5.79-.33,11.56-.77,17.35-1.13,2.54-.16,5.08-.15,7.6-.32,4.82-.34,9.64-.74,14.45-1.14,2.38-.19,4.72-.41,7.06-.7,4.52-.54,9-1.15,13.55-1.71a71.12,71.12,0,0,0,16-3.6C249.63,140.57,250.22,139.26,248.45,135.37Z"/><path d="M81.58,144.31c2-1.58,4.07-3.12,5.94-4.84a4.79,4.79,0,0,0,1.61-2.72c.49-4.69.81-9.4,1.1-14.13.26-4.4.63-8.8.52-13.18-.21-8.7-.69-17.41-1.08-26.11a8.9,8.9,0,0,1,0-1.72A31.7,31.7,0,0,1,89.23,75c.14-4.63-1-9-1.32-13.62,0-.19,0-.36,0-.54h0l-1-11.13c-.53-5.65-.89-11.3-1.64-16.92-1.14-8.53-2.56-17-3.82-25.55a5,5,0,0,1,.1-2.37c.91-2.49,0-4.23-2.78-4.35C77,.5,75.23.46,73.49.42A4.89,4.89,0,0,0,71,1.64C69.94,2.75,69.64,4.56,69.46,6a38.78,38.78,0,0,0,.13,7.69,5.5,5.5,0,0,1,.2,1.51h0L72,63.59h0c.53,3.43.87,6.89,1.45,10.32a23.59,23.59,0,0,1,.22,8,8,8,0,0,1-.18,3.2,36.4,36.4,0,0,1-.1,3.91c.19,6.7.38,13.41.48,20.1a119.93,119.93,0,0,1-.26,12.43,76.63,76.63,0,0,0,1.33,20.44C75.67,146,78.26,146.9,81.58,144.31Z"/><circle cx="69.31" cy="179.94" r="16.37"/><circle cx="255.55" cy="179.94" r="16.37"/></svg>
