<svg id="Lag_1" data-name="Lag 1" xmlns="http://www.w3.org/2000/svg" viewBox="0 0 80.1 57.78"><defs><style>.cls-1{fill:#040405;}.cls-2{font-size:24.39px;fill:#fff;font-family:MyriadPro-Regular, Myriad Pro;}</style></defs><path id="Path_269" data-name="Path 269" class="cls-1" d="M19.79,5.91c-.22-.36,0-.15-.28-.48-.1-.13-.74-.18-.88-.18a4.84,4.84,0,0,0-.82.25,2.13,2.13,0,0,1-.33.11h-2.9l-.15,0a.91.91,0,0,1-.23,0,6.56,6.56,0,0,1-1.4,0c-.39,0-.77.09-1.15.08h0a.32.32,0,0,1-.14,0c-1.06,0-2.11.06-3.16.18s-2.28.4-3.42.61H4.76c-.42,0-.84.14-1.26.18A8.44,8.44,0,0,0,2.4,7l0,0,0,0h0s0,0,0,0,0,0,0,.06c0,.24,0,.48,0,.72a2.91,2.91,0,0,1,0,.31v.19a.85.85,0,0,0,.31.55,1,1,0,0,0,.58.15,11,11,0,0,0,1.52,0h0L11.75,9h0A6.15,6.15,0,0,1,12.5,9c.68,0,1.35-.12,2-.11h.22c.45,0,.88-.06,1.32-.09,1-.08,2.09.1,3.11,0,.38,0,.5-.66.64-1.18A2.77,2.77,0,0,0,19.79,5.91Z"/><path id="Path_270" data-name="Path 270" class="cls-1" d="M36.16,14.63c.31.31.61.63,1,.92a.78.78,0,0,0,.5.21c.4,0,.79-.09,1.18-.16a2.42,2.42,0,0,1,.47-.07l4.09.17h.23l.33,0a14.71,14.71,0,0,1,2,.07c.54,0,1.08,0,1.62,0h0a.47.47,0,0,1,.2,0c1.49,0,3,.07,4.49,0s3.24-.2,4.86-.31h.21c.59,0,1.19-.07,1.78-.08s1-.12,1.57-.17l0,0,0,0h0l0,0,0-.05c0-.2.05-.4.08-.61l.07-.25v-.07s0-.06,0-.09a.81.81,0,0,0-.42-.49,2.54,2.54,0,0,0-.82-.16c-.72-.07-1.43-.08-2.15-.1h0l-10-.31h0L46.46,13c-1,0-1.92,0-2.88,0h-2.2c-1.45,0-2.9,0-4.35,0a1.32,1.32,0,0,0-1.22.7C35.59,14,35.85,14.31,36.16,14.63Z"/><path id="Path_271" data-name="Path 271" class="cls-1" d="M54,34.73c.45-.2.9-.39,1.31-.62a.72.72,0,0,0,.36-.39,7.17,7.17,0,0,0,.08-1,1.55,1.55,0,0,1,0-.43l1.12-3.48a1.29,1.29,0,0,1,0-.19,1.39,1.39,0,0,1,.12-.28,10.11,10.11,0,0,1,.52-1.7c.16-.45.21-.94.37-1.4v0A.37.37,0,0,1,58,25c.37-1.27.77-2.55,1-3.84s.49-2.83.73-4.25l.06-.18h0c.14-.5.18-1,.31-1.55a10.74,10.74,0,0,0,.15-1.39l0,0,0,0h0l0,0-.05,0-.71-.2-.28-.12-.09,0-.1,0a1.07,1.07,0,0,0-.67.26,1.85,1.85,0,0,0-.38.67c-.25.6-.42,1.22-.61,1.83h0l-2.64,8.57h0c-.1.3-.21.6-.34.9-.23.83-.41,1.66-.69,2.47,0,.06,0,.13,0,.19a.29.29,0,0,1,0,.09c-.15.53-.28,1.07-.42,1.61-.33,1.25-.66,2.49-1,3.75a1.07,1.07,0,0,0,.56,1.2A1.29,1.29,0,0,0,54,34.73Z"/><path id="Path_272" data-name="Path 272" class="cls-1" d="M54.1,33.53c-.23-.47-.44-.94-.68-1.41v0a1,1,0,0,0-1.26-.51c-.49.09-1,.15-1.49.21L48.49,32c-1.52.15-3,.3-4.56.42-1.14.1-2.27.15-3.41.23l-2.62.2a1.36,1.36,0,0,1-.29,0h-.5a5.27,5.27,0,0,1-.9.11c-1.12.06-2.24.2-3.38.2l-1.89.11c-.84,0-1.69.11-2.54.15-.67,0-1.34,0-2,0s-1.1.05-1.65.05c-.76,0-1.53,0-2.29-.07h-1a28.94,28.94,0,0,0-3.06.58l-.37.17-.08.08c-.67.58-.67.71.07,1.23l.07.08a24.18,24.18,0,0,0,3.75.84l.09,0h0c1,.1,1.86.22,2.77.31.62.05,1.24,0,1.87.07S28,37,28.67,37c1.28,0,2.56,0,3.84-.07h.13a6.82,6.82,0,0,1,1.43.06h.34c1,0,2-.19,3-.2h.09l3.63-.24c.53,0,1.06,0,1.59-.07,1-.06,2-.15,3-.23.5,0,1-.09,1.48-.15l2.83-.36a14.69,14.69,0,0,0,3.34-.75C54.34,34.61,54.48,34.34,54.1,33.53Z"/><path id="Path_273" data-name="Path 273" class="cls-1" d="M19.25,35.4c.42-.33.84-.65,1.23-1a1,1,0,0,0,.34-.57c.1-1,.17-2,.22-2.95s.13-1.84.11-2.76c0-1.81-.14-3.63-.22-5.45a2.16,2.16,0,0,1,0-.36,6.27,6.27,0,0,1-.09-1.37,24.6,24.6,0,0,0-.28-2.84V18h0l-.22-2.32c-.11-1.18-.19-2.36-.34-3.53-.24-1.78-.54-3.56-.8-5.34a1,1,0,0,1,0-.49c.19-.52,0-.89-.58-.9l-1.09,0a1.05,1.05,0,0,0-.52.25,1.59,1.59,0,0,0-.32.91,7.22,7.22,0,0,0,0,1.61,1.65,1.65,0,0,1,0,.31h0l.46,10.11h0c.11.72.19,1.44.3,2.15a4.8,4.8,0,0,1,.05,1.69,1.69,1.69,0,0,1,0,.67,7.48,7.48,0,0,1,0,.82c0,1.4.08,2.8.1,4.19a25,25,0,0,1-.05,2.6,16.11,16.11,0,0,0,.27,4.27C18,35.75,18.55,35.93,19.25,35.4Z"/><circle id="Ellipse_1" data-name="Ellipse 1" class="cls-1" cx="16.68" cy="42.84" r="3.42"/><circle id="Ellipse_2" data-name="Ellipse 2" class="cls-1" cx="55.58" cy="42.84" r="3.42"/><circle cx="56.23" cy="42.84" r="12.78"/><text class="cls-2" transform="translate(50.01 51.2)">1</text></svg>
