<svg id="icons" enable-background="new 0 0 64 64" height="512" viewBox="0 0 64 64" width="512" xmlns="http://www.w3.org/2000/svg"><path d="m5.5 15.496-1 4-4 1 1-4z" fill="#656d78"/><path d="m5.5 15.496s3.15 7.82 8 12c11.06 10.67 28.95 10.67 40 0l7-7 3 4s-.28 2.19-1.61 5.19l-2.39-3.19-7 7.011c-11.05 10.659-28.94 10.659-40 0-4.85-4.19-8-14.011-8-14.011z" fill="#f6bb42"/><path d="m61.89 29.687.61.81s-1 7.69-8 14.011c-13.82 13.33-36.18 13.33-50 0-6.56-6.011-1.98-17.011-1.98-17.011l-2.02-7 4-1s3.15 9.82 8 14.011c11.06 10.659 28.95 10.659 40 0l7-7.011z" fill="#ffce54"/></svg>
