<svg id="Lag_1" data-name="Lag 1" xmlns="http://www.w3.org/2000/svg" viewBox="0 0 168.25 149.68"><path d="M163.06,6.79c-2.74-1.89-5.49-3.77-8.3-5.57L154.51,1a5.23,5.23,0,0,0-7.65,1.62c-1.93,2.27-4,4.42-6.06,6.54q-4.45,4.62-9,9.12C125.37,24.6,119,30.9,112.48,37.08c-4.84,4.61-9.85,9-14.74,13.51-3.78,3.49-7.49,7-11.25,10.56a9.8,9.8,0,0,1-1.28,1.2c-.75.59-1.49,1.2-2.24,1.81A28.3,28.3,0,0,1,79.34,68c-5,4.37-9.57,9.19-14.74,13.25l-8.26,7.39c-3.7,3.32-7.31,6.72-11.05,10-2.91,2.61-6,4.92-9,7.41-2.47,2-4.86,4.22-7.38,6.2-3.5,2.7-7.09,5.35-10.71,7.82-.38.26-.7.46-1,.64l0,0c-1.28,1-2.55,2-3.84,3C9,128,5.37,133.11,1.49,137.93c-.38.75-.72,1.53-1,2.32a4.11,4.11,0,0,1-.07.78c-.94,5.69-.43,6.43,4.9,6.72a3.32,3.32,0,0,1,.62.16,109.79,109.79,0,0,0,20.28-8.68,2.87,2.87,0,0,1,.51-.23l0,0h0c4.78-2.82,9.34-5.35,13.84-8.15,3-1.93,5.86-4.23,8.8-6.31,3.39-2.41,6.91-4.61,10.19-7.17C65.27,112.79,71,108,76.75,103.19a6.27,6.27,0,0,1,.61-.45A36.75,36.75,0,0,1,84.12,98l1.55-1.2c4.67-3.67,8.54-8.3,13.16-12a4.8,4.8,0,0,1,.39-.4c5.28-4.73,10.46-9.58,15.72-14.34,2.3-2.08,4.74-4,7-6.07,4.34-4,8.64-8.09,12.94-12.16,2.12-2,4.19-4,6.21-6.12,3.9-4,7.72-8.12,11.62-12.17a81.1,81.1,0,0,0,12.51-16.24C168.23,12.06,167.77,10.07,163.06,6.79Z"/><path d="M19,8.28c3.2-.68,6.4-1.44,9.64-1.85a5.8,5.8,0,0,1,4,.8C37.73,11,42.69,15,47.65,19c4.6,3.75,9.3,7.39,13.58,11.5,8.53,8.16,16.83,16.62,25.21,25A12.56,12.56,0,0,0,88.15,57a44.66,44.66,0,0,0,6.21,6.44c4.73,4.09,8.23,9.25,12.54,13.83.17.18.35.34.52.51h0L117.7,89.05c5.21,5.72,10.57,11.26,15.58,17.18,7.58,9,14.93,18.25,22.43,27.35a6.7,6.7,0,0,0,2.44,2.06c3.22,1.31,4.18,3.91,2.09,6.9-1.34,1.89-2.71,3.76-4.08,5.62a5.83,5.83,0,0,1-3.22,1.51c-2,.12-4-1.22-5.61-2.35a54.41,54.41,0,0,1-7.58-7.16,7.53,7.53,0,0,0-1.34-1.58h0L91.88,92l0,0c-3-3.7-6.18-7.23-9.14-11a32.32,32.32,0,0,0-7.86-7.59,11.11,11.11,0,0,0-3.33-2.73c-1.29-1.21-2.61-2.39-4-3.46C61,61,54.44,54.7,47.83,48.49A163,163,0,0,0,35.2,37.41,108.26,108.26,0,0,1,15.86,17.35C12.51,13,13.71,9.41,19,8.28Z"/></svg>
