<svg id="Lag_1" data-name="Lag 1" xmlns="http://www.w3.org/2000/svg" viewBox="0 0 399.05 249.8"><defs><style>.cls-1{fill:#f4c197;}.cls-2{fill:#161616;}.cls-3{fill:#d6a885;}</style></defs><path class="cls-1" d="M302.33,77a84.29,84.29,0,0,1,14.88-30.9c5.1-6.64,11.74-12.8,20-14.18C344,30.77,350.94,33,357,36.24c21.7,11.37,36.07,35.5,35.74,60a92.69,92.69,0,0,1-2.07,17.23c-3.84,18.93-11.43,37.32-23.65,52.27S337.75,192,318.77,195.59c-10.49,2-22.72,1-29.78-7"/><path class="cls-1" d="M89.2,89.19A84.22,84.22,0,0,0,69.29,61.27C63.13,55.6,55.54,50.66,47.17,50.7c-6.89,0-13.34,3.45-18.81,7.64-19.45,14.9-29.51,41.12-25,65.2a92.74,92.74,0,0,0,5,16.63c7,18,17.61,34.83,32.2,47.49s33.35,20.91,52.66,21.19c10.68.16,22.56-2.89,28.15-12"/><path class="cls-1" d="M197.62,241.86c-6.9-2.26-10.57-3.35-16.63-8s-11.33-10.22-17.81-14.26c-16.74-10.45-39.2-9-55.81-19.64-15-9.64-22.34-27.43-25.58-44.69-6.21-33.16,0-68.85,19.23-96.86S152.83,11,187.35,9.29c9.36-.46,26.07-1.36,35.38-.34,15.89,1.73,24.71,5.89,39,12.93,28,13.81,44.58,43.48,50.87,73.44,5.11,24.3,6.91,48.21.61,72.24-1.68,6.4-6.27,14.39-10.57,19.49-3.39,4-7.91,7-12.56,9.52-16,8.82-34.61,14-47.9,26.38-5.19,4.85-9.38,10.79-15.27,14.8-7.62,5.2-18.19,6.14-29.27,4.11"/><path class="cls-2" d="M394.29,66.91l-22-22.76L347.63,24.57,314.87,39.32l-9.38,13.4L276.3,21,244,4.58,208,0l-35,2.36L140.53,20.21,108.3,39.1,86.67,69.43,76.91,55.67,45.83,48.54l-29.3,9.73L1.67,86.92,0,118.86l4.17,33L24,178l24.43,20.49L78.2,210l32.2.63,1.44-2.65,7.11,7.14,40.63,10.63,18.34,13.39,15.9,8.76,2.32,1.89,3.41-.15,33.7-11.1,13.1-11.41,18.83-8.61,27.2-14.61,29.16-4.55,30.29-11.3,25.24-23.55,17.75-30.22,4.23-33.91ZM64.09,197.66,23,166.16l-8.4-31.63L9,103.51l29.21-41,25.36,4.71L79,83.64l-7.08,31.83.36,33.63,18.52,37,6.57,13Zm169.3,23.54-10.77,13.22-23.88,2.64-13.3-7.42-13.14-14.5-36.15-10.37-27.51-14.84L92.88,164.8l-5-31.38-.78-33.23,19.53-26.93,23-22.67,29.26-14.32,31.24-13.53,30.29,4.92,30.47,5.66L280.64,50l14.58,29.73,5.15,3,.53.13,8.82,27.55.37,28.73-9.57,42.49-35.35,16.73ZM387.84,119.5l-7.73,25.86-26.33,31.37-24.53,15.94-9.66-.51-9.94-.65-1.13,2.14,13.37-25.78,3.66-44.29L311.44,81.86l.23-12.41,9.8-16.93L342.82,41l42,28.25,3,26.54Z"/><polygon class="cls-3" points="60.24 92.37 74.51 103.6 71.87 115.47 72.23 149.1 87.89 180.34 70.03 178.35 44.22 154.71 32.2 110.43 46 93.25 60.24 92.37"/><polygon class="cls-3" points="329.58 72.7 322.8 84.77 317.3 99.19 325.55 123.58 321.89 167.87 318.37 174.66 329.12 174.66 346.02 164.15 369.6 117.34 366.41 85.06 344.91 70.83 329.58 72.7"/></svg>
