<svg id="Layer_1" data-name="Layer 1" xmlns="http://www.w3.org/2000/svg" viewBox="0 0 59 59"><defs><style>.cls-1{fill-rule:evenodd;}</style></defs><g id="Group_120" data-name="Group 120"><path id="Path_258" data-name="Path 258" d="M22,58.44l-3.57-2.8L14,55.48l-3-3.26L7.29,50l-1-4.43L3.12,43,1.93,38.91l-.79-3.85-.67-4,1-3.88.23-3.74v0l.69-3.71V15.15l3.19-2.88L7.25,8l4.91-.53,2.46-2.93L18,1.86l4.34-.44,4,.82,3.86-.82L34,2.75l3.78.58,3.87,1.09,3.66,1.82L48.78,8.7l1.78,3.83L53,15.63l1.52,3.71L56,23.07l.55,4,1.23,4.29-2.61,3.76L54.89,39,52,47.07l-4.77,1.2-2.16,3.08L42,54.16l-3.75,1.42L34.6,58.05l-4.45-.51-3.71-1.13Zm-7.44-4.2,4.32.16L22.18,57l4.17-1.9,4.06,1.24,3.87.44,3.36-2.29,3.67-1.39,2.8-2.55,2.36-3.36L51,46l1.29-3.62,1.32-3.68.3-4.06L56.4,31.1l-1.08-3.8v0l-.53-3.85-1.47-3.58-1.45-3.55-2.4-3.08L47.77,9.55,44.66,7.34,41.19,5.62l-3.68-1L33.69,4,30.13,2.74l-3.77.8-4.05-.83-3.78.38-3,2.41L12.8,8.73l-4.66.5L6.67,13l-3,2.71v4.14L3,23.64l-.24,3.79-1,3.74.62,3.68.78,3.79,1.06,3.63,3.16,2.64,1,4.32,3.43,2Z"/></g><g id="Twitter"><path id="Path_2" data-name="Path 2" class="cls-1" d="M24.52,39.34A12.43,12.43,0,0,0,37.06,27h0V26.2a9.86,9.86,0,0,0,2.15-2.27,9.89,9.89,0,0,1-2.51.72,4.65,4.65,0,0,0,1.91-2.39,10.76,10.76,0,0,1-2.74,1.07,4.28,4.28,0,0,0-3.23-1.43,4.49,4.49,0,0,0-4.42,4.42,2.19,2.19,0,0,0,.12.95,12.35,12.35,0,0,1-9.07-4.65,4.51,4.51,0,0,0-.6,2.27,4.75,4.75,0,0,0,1.9,3.7,4.2,4.2,0,0,1-2-.6h0a4.37,4.37,0,0,0,3.59,4.3,3.71,3.71,0,0,1-1.2.11,2.11,2.11,0,0,1-.83-.11,4.53,4.53,0,0,0,4.18,3.11,9.1,9.1,0,0,1-5.5,1.91,3.53,3.53,0,0,1-1.07-.13,11.24,11.24,0,0,0,6.81,2.15"/></g></svg>
