<svg id="Layer_1" data-name="Layer 1" xmlns="http://www.w3.org/2000/svg" viewBox="0 0 57 57"><defs><style>.cls-1{fill-rule:evenodd;}</style></defs><g id="Group_119" data-name="Group 119"><path id="Path_257" data-name="Path 257" d="M21.36,57.29l-3.58-2.8-4.44-.16-3-3.26L6.64,48.89l-1-4.43L2.47,41.84,1.29,37.76.5,33.91-.17,30l1-3.89.24-3.74v0l.69-3.71V14L5,11.12,6.6,6.89l4.92-.52L14,3.44,17.39.71,21.74.27l4,.82L29.58.27,33.37,1.6l3.77.58L41,3.27l3.66,1.82,3.47,2.46,1.77,3.83,2.41,3.1,1.53,3.71,1.52,3.73.55,4,1.23,4.29-2.62,3.76-.29,3.89-1.37,3.84-1.52,4.26-4.76,1.2L44.43,50.2,41.34,53l-3.75,1.42L34,56.9l-4.45-.51L25.8,55.26Zm-7.44-4.2,4.32.16,3.3,2.57,4.17-1.9,4.06,1.24,3.86.44L37,53.31l3.66-1.39,2.81-2.55L45.82,46l4.57-1.15,1.29-3.62L53,37.56l.3-4.06L55.76,30l-1.09-3.8v0l-.54-3.84-1.46-3.59-1.46-3.54-2.4-3.09L47.12,8.4,44,6.19,40.55,4.47l-3.69-1-3.81-.59L29.49,1.59l-3.77.8-4-.83L17.89,2l-3,2.41L12.15,7.58l-4.65.5L6,11.86,3,14.57v4.14l-.7,3.78-.24,3.79L1.12,30l.62,3.68.78,3.79,1.06,3.63,3.16,2.64,1,4.32,3.43,2Z"/></g><path id="Path_261" data-name="Path 261" class="cls-1" d="M26.38,39.59V29.49H22.71V25.31h3.67c.5-.27-2.43-10.81,8.7-8.53v3.56s-3.9-.69-4.14,1.79l0,3.18h4l-.64,4.18H30.9v10.1Z"/></svg>
