<svg id="Layer_1" data-name="Layer 1" xmlns="http://www.w3.org/2000/svg" viewBox="0 0 60 59"><defs><style>.cls-1{fill-rule:evenodd;}</style></defs><g id="Group_118" data-name="Group 118"><path id="Path_256" data-name="Path 256" d="M35.65,58.33l-4.23-1.76-3.86.54-4-.53L19,56l-2.18-4.4-3.47-1.46L10,47.71,7.79,44.35l-3.18-3-.45-4.45L4.48,33,1.56,29.09l2-4.08-.79-4.38L5.32,17l1.34-4.11L10.77,11l1.89-3.61,3.74-2L20,3.76l3.73-1.5,4,.18,3.71-.56,3.81-.11,4.47-1,3.5,2.5L47.7,4l1.56,4.7,3.38,1.78L56,13.23l1.36,4.16,0,4.06L59,25.05l-.5,4,.23,3.81v0l-.25,4-1,4-1.67,3.91-3.36,2.54-2.53,3-3.3,2.27-3.33,2.28-3.75,1.38Zm-4.07-3.06,4,1.66,3.48-1.87,3.68-1.35,3.2-2.19,3.15-2.17,2.51-3,3.21-2.43,1.5-3.51.95-3.75.24-3.82L57.26,29l.47-3.75-1.58-3.51,0-4.14L54.93,14l-3-2.44-3.73-2L46.73,5.14l-4-.64L39.44,2.16,35.4,3l-3.85.11-3.76.57-3.86-.18L20.47,4.93,16.93,6.49,13.6,8.29,11.69,12l-4,1.9L6.46,17.62,4.09,20.93l.77,4.26L3,29l2.74,3.68-.35,4.23.39,3.87,2.95,2.8,2.13,3.29L14,49l3.78,1.59,2.09,4.22,3.81.49,3.87.51Z"/></g><path id="Path_260" data-name="Path 260" class="cls-1" d="M42,23.26a3,3,0,0,0-2.12-2.12c-1.86-.5-9.35-.5-9.35-.5s-7.49,0-9.36.5a3,3,0,0,0-2.12,2.12,31.79,31.79,0,0,0-.5,5.76,31.82,31.82,0,0,0,.5,5.77,3,3,0,0,0,2.12,2.12c1.87.5,9.36.5,9.36.5s7.49,0,9.35-.5A3,3,0,0,0,42,34.79a31,31,0,0,0,.5-5.77A30.91,30.91,0,0,0,42,23.26ZM28.14,32.62V25.43L34.36,29l-6.22,3.6Z"/></svg>
