<svg id="Layer_1" data-name="Layer 1" xmlns="http://www.w3.org/2000/svg" viewBox="0 0 59 59"><defs><style>.cls-1{fill-rule:evenodd;}</style></defs><g id="Group_117" data-name="Group 117"><path id="Path_255" data-name="Path 255" d="M22.58,57.71,20,53.86l-3.37-.65-3.53-1.54-2.58-2.61L7,47.06,5.74,43.23l-2-2.91L1.53,36.71l.87-4L.47,29.09l1.4-3.83,0-4L5,18.46l.48-3.73,2.67-2.87L10.8,9.4l2.76-2.56,3.94-.46L19.9,4l3.2-1.49L25.55.34l4.86.45L35.15.33,37.51,3H41l4,.79,2.84,2.88,1.79,3.46,1.64,3.24,2.86,1.8,2.19,3.23.06,3.7,2,3.51-.87,3.5.26,3.44-.11,3.7-.77,3.67-1.36,3.68-3,2.44L50.34,49l-2.86,2.3-2.84,2.38-3.28,1.6L38,57.67l-4.09-1.28-3.4,1-3.74.1ZM17,52l3.75.73,2.48,3.69,3.5-.19,3.58-.09L33.93,55l3.84,1.21,2.93-2.13,3.24-1.58,2.73-2.29,2.74-2.19,2.1-2.92,2.9-2.33,1.2-3.26.73-3.47.11-3.52L56.17,29l.8-3.21-1.88-3.35L55,18.78l-1.83-2.7-2.93-1.84-1.8-3.54L46.78,7.41,44.34,4.94l-3.47-.68H36.94l-2.32-2.6-4.21.41L26,1.66,23.8,3.6,20.63,5.07,18.08,7.58l-4,.47-2.46,2.28L9.07,12.77,6.72,15.3l-.49,3.8L3.11,21.84l0,3.64L1.85,29l1.89,3.55-.86,3.93,2,3.17,2.06,3L8,46.2l3.27,1.85,2.52,2.56Z"/></g><path id="Path_259" data-name="Path 259" class="cls-1" d="M29.4,18.51c-2.85,0-3.21,0-4.33.06a7.65,7.65,0,0,0-2.55.49,5.12,5.12,0,0,0-1.86,1.21,5.18,5.18,0,0,0-1.22,1.87A7.9,7.9,0,0,0,19,24.69c-.05,1.12-.06,1.48-.06,4.33s0,3.22.06,4.34a8,8,0,0,0,.49,2.55A5.47,5.47,0,0,0,22.52,39a7.64,7.64,0,0,0,2.55.48c1.12.06,1.48.07,4.33.07s3.22,0,4.34-.07A7.68,7.68,0,0,0,36.29,39a5.47,5.47,0,0,0,3.08-3.08,8,8,0,0,0,.49-2.55c0-1.12.06-1.48.06-4.34s0-3.21-.06-4.33a7.9,7.9,0,0,0-.49-2.55,5.18,5.18,0,0,0-1.22-1.87,5.12,5.12,0,0,0-1.86-1.21,7.69,7.69,0,0,0-2.55-.49C32.62,18.52,32.26,18.51,29.4,18.51Zm0,1.89c2.81,0,3.14,0,4.25.06a5.73,5.73,0,0,1,2,.37,3.08,3.08,0,0,1,1.2.78,3.26,3.26,0,0,1,.79,1.21A5.7,5.7,0,0,1,38,24.77c0,1.11.06,1.44.06,4.25s0,3.14-.06,4.25a5.62,5.62,0,0,1-.36,1.95,3.26,3.26,0,0,1-.79,1.21,3.22,3.22,0,0,1-1.2.79,6,6,0,0,1-2,.36c-1.11.05-1.44.06-4.25.06s-3.14,0-4.24-.06a6,6,0,0,1-2-.36,3.46,3.46,0,0,1-2-2,5.62,5.62,0,0,1-.36-1.95c-.06-1.11-.07-1.44-.07-4.25s0-3.14.07-4.25a5.7,5.7,0,0,1,.36-1.95A3.36,3.36,0,0,1,22,21.61a3.19,3.19,0,0,1,1.21-.78,5.73,5.73,0,0,1,2-.37C26.26,20.41,26.6,20.4,29.4,20.4Zm0,3.22A5.4,5.4,0,0,0,24,29h0a5.4,5.4,0,0,0,5.4,5.4h0A5.39,5.39,0,0,0,34.8,29h0a5.4,5.4,0,0,0-5.4-5.4Zm0,8.9a3.5,3.5,0,1,1,0-7h0A3.5,3.5,0,0,1,32.91,29h0a3.51,3.51,0,0,1-3.51,3.51h0Zm6.88-9.11A1.26,1.26,0,1,1,35,22.14a1.27,1.27,0,0,1,1.26,1.27Z"/></svg>
