<svg id="Lag_1" data-name="Lag 1" xmlns="http://www.w3.org/2000/svg" viewBox="0 0 266.89 272.1"><defs><style>.cls-1{fill:#161616;fill-rule:evenodd;}.cls-2{fill:#fff;}</style></defs><polygon class="cls-1" points="265.7 137 263.69 171.19 253.01 204.49 233.05 233.94 205.63 257.41 170.65 265.88 136.11 272.1 101.33 266.77 67.97 255.02 39.83 233.27 13.24 207.94 8.54 171.18 0 137 3.03 101.34 12.77 65.79 45.01 45.9 69.33 21.33 100.7 4.86 136.11 1.54 172.81 0 204.4 18.71 228.56 44.55 260.24 65.33 266.89 101.95 265.7 137"/><path class="cls-2" d="M213.1,177.2A65.75,65.75,0,0,0,207.78,166a1.22,1.22,0,0,1-.14-.28h0v0c-1.66-2.6-3.16-5.09-4.79-7.54-1.13-1.64-2.44-3.16-3.64-4.75-1.38-1.83-2.67-3.75-4.13-5.5-2.6-3.13-5.33-6.21-8-9.28-.1-.12-.19-.23-.26-.33a21.09,21.09,0,0,1-2.76-3.65l-.68-.84c-2.1-2.51-4.66-4.53-6.76-7a1.42,1.42,0,0,1-.22-.21c-2.67-2.81-5.4-5.57-8.08-8.37-1.18-1.23-2.26-2.54-3.44-3.75-2.25-2.32-4.55-4.6-6.84-6.89-1.12-1.13-2.25-2.22-3.42-3.29-2.25-2.06-4.53-4.07-6.79-6.13a42.91,42.91,0,0,0-8.94-6.49,4.7,4.7,0,0,0-5.45,0,42.84,42.84,0,0,0-8.93,6.49c-2.26,2.06-4.54,4.07-6.79,6.13-1.17,1.07-2.3,2.16-3.43,3.29-2.29,2.29-4.58,4.57-6.83,6.89-1.19,1.21-2.27,2.52-3.44,3.75-2.68,2.8-5.41,5.56-8.08,8.37a2.08,2.08,0,0,1-.22.21c-2.11,2.48-4.67,4.5-6.76,7l-.69.84a21,21,0,0,1-2.75,3.65c-.08.1-.16.21-.27.33-2.72,3.07-5.45,6.15-8,9.28-1.47,1.75-2.75,3.67-4.14,5.5-1.2,1.59-2.51,3.11-3.63,4.75-1.64,2.45-3.13,4.94-4.79,7.54v0h0a1.83,1.83,0,0,1-.14.28,65.75,65.75,0,0,0-5.32,11.17,1.49,1.49,0,0,1,.05.36c-.06,3,.3,5.86,3.3,5.53h.4c.43-.15.84-.31,1.25-.5A87.23,87.23,0,0,0,72,176.41c.56-.7,1.14-1.38,1.71-2.07l.4-.58c.11-.15-.17.24,0,0,1.43-2,3-3.9,4.49-5.78,1.13-1.36,2.36-2.63,3.52-4,1.42-1.62,2.74-3.3,4.21-4.85,1.84-2,3.75-3.92,5.62-5.89l4.18-4.41c2.31-2.78,5-5.22,7.47-7.86a15.14,15.14,0,0,1,2.14-1.92l1-1.2a4.85,4.85,0,0,1,.68-.68c2-2,4-4,5.93-6,2.56-2.61,5-5.28,7.61-7.85,3.47-3.46,7-6.85,10.53-10.25q2.28-2.19,4.62-4.33,2.32,2.15,4.62,4.33c3.52,3.4,7.05,6.79,10.52,10.25,2.59,2.57,5.06,5.24,7.62,7.85,2,2,4,4,5.93,6a6.23,6.23,0,0,1,.68.68c.33.4.68.8,1,1.2a15.65,15.65,0,0,1,2.13,1.92c2.48,2.64,5.16,5.08,7.48,7.86l4.17,4.41c1.87,2,3.79,3.89,5.62,5.89,1.47,1.55,2.8,3.23,4.21,4.85,1.16,1.32,2.39,2.59,3.52,4,1.54,1.88,3.06,3.82,4.5,5.78l.37.54h0c.57.69,1.15,1.37,1.71,2.07a87.23,87.23,0,0,0,7.87,6.17c.4.19.82.35,1.24.5h.41c3,.33,3.36-2.5,3.29-5.53A2.25,2.25,0,0,1,213.1,177.2Z"/></svg>
