<svg id="Layer_1_Image" data-name="Layer 1 Image" xmlns="http://www.w3.org/2000/svg" viewBox="0 0 283.46 283.46"><path d="M95.64,239.57c.34,4.32.82,8.51,1,12.72.2,6.33.16,12.67.2,19,0,1-.17,2-.18,3a5.12,5.12,0,0,1-2.48,4.25c-1.42,1-2.73,2.22-4.16,3.24a2.79,2.79,0,0,1-4.63-1.81,31.31,31.31,0,0,1-.4-5.48c0-4.51,0-9,0-13.53,0-2.79-.3-5.57-.25-8.4L86.15,258l.19,0c0-1,0-1.91,0-2.87s-.16-1.91-.22-2.87c-.23-3.38-.42-6.77-.68-10.15a20.08,20.08,0,0,0-.52-3.18,1.24,1.24,0,0,0-.84-.63,21.47,21.47,0,0,1-5.71-1.48c-1.55-.78-3.46-.79-5.11-1.42A54.83,54.83,0,0,1,65,231.66a38,38,0,0,1-6.29-5c-2.09-2-3.54-5.23-4.24-8.65l1.94.84a290.84,290.84,0,0,1-4.2-31.63c-1-10.58-1.91-21.17-2.86-31.72-3.6.55-7.23,1.2-10.89,1.62a81.16,81.16,0,0,1-8.68.49,26.18,26.18,0,0,1-6.63-.49,93.85,93.85,0,0,1-10-3.36,4.36,4.36,0,0,1-2.57-3.64c-.23-1.28.89-2,1.62-2.57,2.68-1.94,5.46-3.76,8.89-4.19a1.93,1.93,0,0,1,2.38,1.24c.36.89.84,1.73,1.17,2.63a1.15,1.15,0,0,0,1.36.84c1.87-.16,3.74-.19,5.6-.41,3.43-.41,6.86-.88,10.27-1.38,2-.29,3.92-.74,5.89-1,.9-.12,1.14-.53,1.09-1.32-.1-1.64-.17-3.27-.25-4.9l-.6-11.81c-.27-5.09-.58-10.18-.79-15.27-.16-3.67-.16-7.33-.27-11-.08-2.86-.24-5.73-.29-8.59s0-5.82,0-8.74-.13-5.66,0-8.49q.26-8.34.73-16.67a4,4,0,0,1,1-2.16C53,51,59.15,48.7,65.65,47c1.62-.41,3.22-.88,4.91-1.34,0-1.21,0-2.4,0-3.58.31-9,.58-18,1-27.06.19-4,.72-7.94,1-11.92a2.44,2.44,0,0,1,1.74-2.06,1.18,1.18,0,0,1,1,.25c1.17,1.09,2.28,2.24,3.37,3.4a1.72,1.72,0,0,1,.35,1c.24,6.1.51,12.19.68,18.29s.23,12.36.35,18.54c0,.39.05.79.08,1.38,1-.15,2-.32,2.93-.42,3.44-.35,6.88-.72,10.33-1,3-.23,6-.4,9-.47,3.58-.09,7.15,0,10.73-.07,1.29,0,2.58-.1,3.87-.15a5.89,5.89,0,0,1,.84,0c4.72.33,9.44.65,14.16,1,1.74.13,3.46.39,5.2.56,3.59.35,7.18.64,10.76,1,2.09.23,4.16.63,6.25.9,2.36.31,4.73.51,7.09.84,3,.43,6.06.95,9.09,1.43,1.85.29,3.7.58,5.55.85,1.64.24,3.3.43,4.94.66,3.26.44,6.52.88,9.78,1.36q3.24.47,6.46,1a3,3,0,0,1,1.07.51c2,1.3,4,2.61,6,3.94s3,2.31,1.08,5.46c-1,1.56-.35,3.2,0,4.76.37,1.86,1.06,3.66,1.46,5.52.58,2.67,1.05,5.36,1.49,8.06.52,3.1,1,6.22,1.41,9.33.49,3.58.86,7.17,1.34,10.74.38,2.91.84,5.81,1.26,8.71.28,1.9.27,1.91,2.15,1.94,6.38.1,12.76.13,19.13.36,3.22.11,6.43.56,9.63.93,3.44.41,6.87.84,10.28,1.39a3.53,3.53,0,0,1,1.91,1.25c1.18,1.4,2.22,2.92,3.29,4.41,1.76,2.46,1,4.25-1.94,4.61a58.24,58.24,0,0,1-15,.06c-3-.43-6-.59-9.08-.72-5.81-.26-11.64-.42-17.46-.61-.46,0-.93,0-1.47.07.29,4,.56,7.86.84,11.81h5.63c3.27,0,6.54,0,9.81,0a9,9,0,0,0,1.72-.38,37.1,37.1,0,0,1,4.27-.86,2.85,2.85,0,0,1,1.87.75c1.28,1.14,2.44,2.42,3.62,3.66s2.17,2.45,1.48,4.13a4.86,4.86,0,0,1-4.35,3.11c-5.3.32-10.6.56-15.89.83-2.28.12-4.55.25-6.83.32-.76,0-1,.28-1,1.06.1,4.14.14,8.27.22,12.4,0,1.49.2,1.65,1.71,1.52,3.14-.26,6.27-.58,9.41-.83,3.84-.31,7.7-.52,11.53-.89,5.16-.49,10.31-1.07,15.46-1.64q3.68-.42,7.34-.92c1.69-.23,3.39-.47,5.06-.81,2.15-.44,3.43.11,4.32,2.13.8,1.79,1.54,3.6,2.27,5.41,1.25,3.12.83,4.16-2.3,5.47a45.25,45.25,0,0,1-11.33,2.89c-3.2.45-6.39.94-9.59,1.38-1.66.23-3.32.41-5,.56-3.41.32-6.82.64-10.23.91-1.79.14-3.59.13-5.38.26-4.1.29-8.19.64-12.29.91-.84.06-1.05.39-1.1,1.18-.28,4.89-.55,9.78-.93,14.66-.41,5.16-1,10.3-1.41,15.46a96.16,96.16,0,0,1-2.54,15.92,6.15,6.15,0,0,1-3.64,4.45c-2.46,1-4.88,2.19-7.32,3.27a1.9,1.9,0,0,1-2.4-.44.9.9,0,0,0-.49-.31c-1.3-.11-1.82-1-2.17-2.1-.21-.66-.64-.68-1.28-.72-3.68-.24-7.18.76-10.71,1.54-5.76,1.28-11.48,2.71-17.24,4-3.85.86-7.74,1.55-11.6,2.33-.94.19-1.86.48-2.8.65-4.82.86-9.63,1.84-14.48,2.49s-9.5.91-14.25,1.37c-1,.1-1.88.47-2.82.48-2.9.05-5.79-.06-8.68,0-2.11,0-4.21.34-6.31.32-2.57,0-5.14-.25-7.7-.39C96.05,239.52,95.89,239.55,95.64,239.57Zm67.43-65.27c0,.64-.08,1.15-.09,1.66,0,2,0,4.07-.14,6.11a2.41,2.41,0,0,1-.51,1.53,53,53,0,0,1-4.55,4.06,2.9,2.9,0,0,1-4.22-.75,12.81,12.81,0,0,1-2.37-5.95c-.29-3.06-.52-6.12-.82-9.18a1.74,1.74,0,0,0-.57-1.06c-2.51-2-2.52-2.51-.23-4.73a2.67,2.67,0,0,0,.82-1.59c.08-3.83.05-7.66.08-11.49,0-2.77.08-5.55.14-8.32a2.54,2.54,0,0,1,.21-.68,12.49,12.49,0,0,0,.49-2c.44-5.45.83-10.9,1.25-16.35.28-3.66.5-7.33.86-11,.2-1.94,1.51-2.53,3.29-1.78a3.72,3.72,0,0,0,1.73.17c6.28-.52,12.56-1.16,18.84-1.59,4.14-.29,8.29-.3,12.44-.43l8.18-.26c.08-.23.17-.34.16-.45-.27-3.21-.54-6.42-.83-9.63A3.65,3.65,0,0,0,197,100a13.09,13.09,0,0,1-.66-2.16q-.66-4.71-1.2-9.43A93.36,93.36,0,0,0,192.91,76c-.36-1.42-.56-2.89-.8-4.35-.32-1.86-.69-3.72-.87-5.6-.07-.82-.29-1.08-1.09-1.16-3-.31-6-.64-8.94-1-2.65-.37-5.26-.91-7.91-1.28-4.63-.66-9.28-1.23-13.92-1.88-4.45-.63-8.9-1.32-13.35-2-1.91-.27-3.83-.5-5.75-.67-3.25-.28-6.51-.49-9.76-.73s-6.67-.49-10-.75c-.86-.07-1.71-.29-2.57-.3-3-.05-6.1-.07-9.15,0-1.87,0-3.74.18-5.61.21-2.85.06-5.71,0-8.56.12-1.54,0-3.08.27-4.62.37-2.82.18-5.63.34-8.45.49-.62,0-1,.25-.92,1,.1,2.63.13,5.26.24,7.89.24,5.53.54,11.06.78,16.59.2,4.46.32,8.92.54,13.38.16,3.38.42,6.75.6,10.13.17,3.14.26,6.29.45,9.44.29,4.68.64,9.37,1,14,.15,2,.34,4,.52,6.08.83-.21,1.49-.32,2.12-.54,3.71-1.34,7.45-2.6,11.1-4.07s7.07-3.09,10.6-4.65c1.61-.71,3.19-1.46,4.81-2.15a1.49,1.49,0,0,1,2.18,1,53.41,53.41,0,0,1,1.68,5.49,3.82,3.82,0,0,1-.42,2.34c-.78,1.63-1.78,3.14-2.58,4.76a13.48,13.48,0,0,0-1.28,3.44c-.48,2.65-.86,5.34-1.11,8-.22,2.49-.3,5-.3,7.49a32.87,32.87,0,0,0,.49,4.52,17,17,0,0,0,.7,3.25c.57,1.61,1.32,3.16,2,4.73a23.17,23.17,0,0,0,5.93,8,20.81,20.81,0,0,0,3.08,2c.67.42,1,0,1.27-.55a38.84,38.84,0,0,0,1.32-3.7c.54-2,1-4.11,1.36-6.18.28-1.49.39-3,.61-4.5.31-2.1.75-4.19,1-6.31s.16-4,.23-6c.09-3.1.16-6.2.27-9.3.1-2.62.31-5.24.37-7.87.09-3.64,0-7.29.13-10.93.13-3.18.58-6.34.74-9.51a15.6,15.6,0,0,1,2.52-7.07c1.54-2.63,4.33-3.42,6.78-4.69a1.47,1.47,0,0,1,2.06.93c1.24,3.5,2.65,7,2.79,10.74.19,5.29.4,10.59.49,15.88.06,3.07-.08,6.13-.17,9.19-.12,4.07-.22,8.13-.45,12.19-.25,4.45-.65,8.89-1,13.34a58.44,58.44,0,0,1-2.9,14.47c-.71,2.14-1.69,4.19-2.61,6.26a14.55,14.55,0,0,1-5.22,6.07c-3.07,2.11-6.38,1.43-9.58.56a58.47,58.47,0,0,1-7.72-2.91,14.58,14.58,0,0,1-6.16-5.27,38.1,38.1,0,0,1-3-4.94c-1.56-3.22-3.06-6.48-4.31-9.83A36.72,36.72,0,0,1,100,156.2c0-3.52.28-7,.5-10.57.1-1.54.38-3.07.6-4.68a4.57,4.57,0,0,0-.79.19c-2,.8-4,1.67-6,2.41-2.69,1-5.42,1.86-8.11,2.83a1.19,1.19,0,0,0-.63.9c.22,2.93.5,5.86.77,8.79.39,4.2.77,8.4,1.19,12.6q1.09,10.89,2.26,21.77c.58,5.35,1.24,10.69,1.89,16,.73,6,1.51,12,2.23,18.05.08.64.27.9,1,.87,3.53-.19,7.06-.33,10.59-.49,3.37-.15,6.74-.26,10.11-.44A135.58,135.58,0,0,0,134,222.61c3.5-.68,7.06-1.05,10.59-1.64,4.07-.68,8.15-1.35,12.2-2.18s7.84-1.84,11.76-2.73q5.47-1.25,11-2.41c4-.84,7.92-1.77,11.92-2.43a38.2,38.2,0,0,1,5.87-.05c0-.19.12-.5.16-.81.53-4.43,1.13-8.86,1.57-13.31a191.87,191.87,0,0,0,1.3-20c0-1.08-.36-1.24-1.31-1.21-4.34.14-8.69.28-13,.28-2.42,0-4.85-.25-7.28-.36-2.11-.1-4.23-.06-6.33-.26C169.35,175.17,166.31,174.71,163.07,174.3ZM74.53,138.92c-1.89-26.83-3.08-53.49-3.86-80.11a26.13,26.13,0,0,0-3.43,0c-3.15.42-6.29.95-9.44,1.44-.65.1-.92.36-.8,1.13.26,1.73.47,3.48.56,5.23.38,7,.69,14.11,1.07,21.17q.52,10.11,1.15,20.21,1,16.38,2,32.75c0,.47.11.93.17,1.48Zm8.79,86.34c-2.76-25.51-5.47-50.6-8.19-75.73a1.71,1.71,0,0,0-.5,0c-3.78.92-7.57,1.85-11.34,2.83a1.18,1.18,0,0,0-.59.93c.06,2.19.11,4.39.31,6.58.91,9.57,1.8,19.15,2.82,28.72.93,8.65,2,17.28,3,25.93.31,2.85.87,5.74-.56,8.73Zm80.25-79.13c-.16,1.18-.37,2.05-.39,2.91-.1,3.83-.14,7.65-.19,11.47,0,2.1,0,2.18,2,2.32,2.58.16,5.17.23,7.75.25,1.87,0,3.74-.14,5.6-.19,2.27-.06,4.54,0,6.8-.15,2.87-.14,5.73-.4,8.6-.59l7.05-.46c-.18-5.38-.34-10.58-.52-16Zm.56-9a5.09,5.09,0,0,0,.78,0c5.9-.72,11.77-1.62,17.68-2.12,5.43-.45,10.9-.5,16.35-.64,1,0,1.26-.36,1.15-1.27s-.24-2-.31-3c-.19-2.65-.37-5.29-.56-8.12l-35.7-.5C163.73,126.8,163.93,132,164.13,137.17Z"/></svg>
