<svg id="Layer_1" data-name="Layer 1" xmlns="http://www.w3.org/2000/svg" viewBox="0 0 1308.39 498.61"><defs><style>.cls-1{fill:none;stroke:#000;stroke-miterlimit:10;stroke-width:2px;}.cls-2{fill:#ffff9c;}</style></defs><polygon class="cls-1" points="104.68 61.32 152.52 123.46 174.39 150.8 207.04 167.32 248.74 186.57 317.07 211.73 386.4 230.68 443.46 238.06 514.78 244.59 598.18 245.98 669.47 241.75 732.95 229.71 802.02 210.43 868.39 184.57 931.84 161.77 985.84 129.16 1058.78 89.84 1115.06 56.7 1160.31 33.25 1193.36 19.76 1226.56 12.21 1253.82 15.59 1288.25 29.31 1301.91 41.76 1307.35 65.66 1293.46 99.94 1272.6 140.58 1239.91 187.5 1195.37 229.94 1131.52 282.75 1069.92 324.28 993.17 368.05 868.71 419.08 771.16 450.82 656.67 476.85 584.54 493.24 538.96 494.02 449.47 497.6 368.84 487.2 308.04 468.71 257.04 445.59 196.16 405.57 153.76 367.33 118.59 323.86 107.81 297.59 103.74 263.8 102 240.26 100.35 213.04 98.49 182.41 73.11 134.32 44.7 94.1 20.8 68.42 1.52 52.45 57.36 1.46 104.68 61.32"/><path class="cls-2" d="M164,248" transform="translate(-16.75 -231.97)"/></svg>
