<?xml version="1.0" standalone="no"?>
<!DOCTYPE svg PUBLIC "-//W3C//DTD SVG 20010904//EN"
 "http://www.w3.org/TR/2001/REC-SVG-20010904/DTD/svg10.dtd">
<svg version="1.0" xmlns="http://www.w3.org/2000/svg"
 width="798.000000pt" height="798.000000pt" viewBox="0 0 798.000000 798.000000"
 preserveAspectRatio="xMidYMid meet">
<metadata>
Created by potrace 1.11, written by Peter Selinger 2001-2013
</metadata>
<g transform="translate(0.000000,798.000000) scale(0.100000,-0.100000)"
fill="#000000" stroke="none">
<path d="M4058 6474 c-2 -2 -53 -6 -113 -9 -61 -3 -126 -7 -145 -9 -19 -2 -89
-7 -155 -11 -66 -3 -135 -9 -153 -11 -32 -5 -110 -42 -138 -65 -8 -6 -14 -8
-14 -4 0 5 -8 1 -17 -7 -10 -9 -45 -30 -78 -47 -33 -17 -96 -52 -140 -76 -44
-25 -93 -52 -110 -60 -16 -9 -57 -31 -90 -50 -33 -19 -76 -42 -95 -52 -19 -9
-37 -20 -40 -24 -3 -3 -21 -14 -40 -24 -19 -9 -43 -24 -52 -33 -10 -8 -18 -11
-18 -7 0 4 -8 1 -17 -7 -26 -22 -210 -128 -222 -128 -6 0 -11 -4 -11 -9 0 -5
-8 -11 -17 -15 -10 -3 -31 -15 -48 -26 -16 -11 -37 -23 -45 -27 -76 -38 -131
-79 -156 -115 -16 -24 -35 -49 -41 -58 -7 -8 -81 -112 -165 -230 -84 -119
-163 -228 -175 -244 l-23 -28 -20 23 c-11 13 -22 32 -25 42 -4 9 -10 17 -14
17 -3 0 -15 15 -26 33 -10 17 -23 37 -27 42 -4 6 -19 24 -33 41 -14 18 -25 36
-25 42 0 14 -22 30 -50 36 -14 3 -65 15 -115 27 -49 11 -101 23 -115 25 -14 3
-70 16 -125 29 -55 13 -131 31 -169 40 l-69 15 -171 -55 c-94 -31 -179 -60
-188 -65 -10 -6 -24 -10 -32 -10 -8 0 -27 -5 -43 -12 -15 -6 -30 -12 -33 -13
-3 -1 -31 -9 -63 -19 -53 -16 -60 -22 -80 -64 -12 -26 -24 -49 -27 -52 -3 -3
-47 -88 -99 -190 -52 -102 -107 -209 -123 -238 -15 -28 -27 -62 -27 -75 1 -12
-2 -69 -5 -127 -20 -319 -26 -519 -17 -570 5 -25 12 -70 15 -100 3 -30 8 -68
11 -85 2 -16 9 -70 15 -120 5 -49 13 -108 16 -130 3 -22 7 -57 10 -77 2 -21 5
-43 6 -50 3 -11 151 -214 167 -228 3 -3 18 -23 33 -45 15 -22 39 -53 53 -69
14 -16 25 -32 25 -35 0 -3 14 -21 30 -40 17 -18 30 -37 30 -41 0 -13 107 -118
190 -185 47 -39 87 -72 90 -75 3 -3 46 -39 95 -80 50 -40 97 -81 106 -89 36
-35 66 -58 85 -64 36 -11 209 -78 251 -98 24 -10 46 -19 50 -19 11 0 215 -79
238 -92 12 -7 77 -13 155 -14 74 -2 222 -5 328 -7 l192 -5 19 26 18 25 69 -70
c67 -67 72 -71 154 -92 47 -12 93 -24 103 -26 10 -2 27 -7 37 -10 10 -3 27 -7
37 -9 10 -2 43 -11 74 -20 31 -9 66 -18 78 -21 11 -2 25 -6 29 -9 5 -3 19 -7
33 -10 99 -19 344 -87 347 -96 2 -6 8 -10 13 -10 8 0 35 -20 64 -48 8 -6 16
-12 19 -12 3 0 59 -39 123 -87 120 -90 132 -98 193 -130 19 -11 62 -34 95 -53
33 -18 78 -43 100 -54 22 -12 42 -23 45 -26 3 -3 19 -15 37 -27 43 -31 84 -29
173 5 8 3 17 6 20 7 3 1 12 4 20 7 8 4 137 46 287 95 213 69 279 95 306 118
19 17 63 55 97 85 34 30 79 70 99 87 20 18 39 33 43 33 3 0 54 22 113 50 59
28 108 50 110 50 13 0 379 188 410 210 6 4 71 39 145 78 126 65 170 81 245 87
17 2 57 8 90 13 33 6 78 14 100 17 22 3 54 8 70 11 17 3 44 7 60 9 84 11 172
28 190 38 11 6 25 12 30 13 6 1 39 13 75 27 36 13 133 50 215 80 83 31 171 64
196 74 26 10 77 46 115 82 416 384 437 405 495 506 29 50 73 125 98 168 25 43
51 86 56 95 6 10 23 40 40 67 54 91 64 110 84 150 11 23 23 68 26 100 4 33 9
69 11 80 2 10 6 49 10 85 3 36 7 72 9 80 2 8 6 44 10 80 4 36 9 74 11 85 23
111 23 235 -2 370 -3 17 -7 41 -8 55 -11 82 -18 129 -23 160 -3 19 -6 49 -8
65 -2 17 -5 44 -8 60 -3 17 -9 50 -13 75 -4 25 -7 50 -6 57 3 14 -445 479
-499 518 -29 21 -105 79 -119 92 -8 7 -35 29 -60 48 -25 19 -50 40 -57 45
-180 148 -200 162 -220 151 -10 -6 -63 -30 -118 -55 -128 -56 -371 -165 -455
-204 -60 -27 -70 -36 -125 -118 -33 -49 -62 -91 -65 -94 -3 -3 -17 -21 -30
-40 -13 -19 -25 -37 -26 -39 -3 -3 -45 41 -214 226 -155 170 -244 265 -310
334 l-75 78 -316 160 c-187 95 -332 163 -355 165 -22 3 -64 8 -94 11 -30 4
-66 8 -80 11 -14 2 -66 9 -117 15 -51 5 -100 12 -110 13 -10 2 -47 7 -83 11
-36 4 -74 9 -85 12 -24 6 -213 12 -217 7z"/>
</g>
</svg>
